<?xml version="1.0" standalone="no"?><!DOCTYPE svg PUBLIC "-//W3C//DTD SVG 1.1//EN" "http://www.w3.org/Graphics/SVG/1.1/DTD/svg11.dtd"><svg t="1615875604256" class="icon" viewBox="0 0 1024 1024" version="1.1" xmlns="http://www.w3.org/2000/svg" p-id="1228" width="128" height="128" xmlns:xlink="http://www.w3.org/1999/xlink"><defs><style type="text/css"></style></defs><path d="M874.5 97c-42.1 0-76.4 34.5-76.4 76.8V736c0 7.8 1.9 15.5 5.6 22.4l47 149.6 2.2 4.9c4.7 7.4 12.7 11.8 21.5 11.8s16.8-4.4 21.5-11.8l49.3-154.5c3.7-6.9 5.6-14.5 5.6-22.4V173.8c0.1-42.3-34.2-76.8-76.3-76.8z m0 747l-29.4-93.5h59.5L874.5 844z m33.8-135.4h-65.5l-2.5-479.8H909l-0.7 479.8z m0.8-521.7H840l-0.1-13.1c0-19.2 15.5-34.9 34.6-34.9s34.6 15.7 34.6 34.9v13.1zM614.9 96.1H132.4c-33.2 0-60.3 27.1-60.3 60.3v709c0 33.3 27.1 60.3 60.3 60.3h482.5c33.2 0 60.3-27.1 60.3-60.3v-709c0-33.3-27.1-60.3-60.3-60.3z m18.4 769.3c0 10.2-8.3 18.5-18.4 18.5H132.4c-10.2 0-18.4-8.3-18.4-18.5v-709c0-10.2 8.3-18.4 18.4-18.4h482.5c10.2 0 18.4 8.3 18.4 18.4v709z" p-id="1229" fill="#2c7da8"></path><path d="M496.5 293H250.8c-11.6 0-20.9 9.4-20.9 20.9 0 11.6 9.4 20.9 20.9 20.9h245.7c11.6 0 20.9-9.4 20.9-20.9s-9.3-20.9-20.9-20.9zM496.5 489.9H250.8c-11.6 0-20.9 9.4-20.9 20.9 0 11.6 9.4 20.9 20.9 20.9h245.7c11.6 0 20.9-9.4 20.9-20.9s-9.3-20.9-20.9-20.9zM496.5 686.9H250.8c-11.6 0-20.9 9.4-20.9 20.9 0 11.6 9.4 20.9 20.9 20.9h245.7c11.6 0 20.9-9.4 20.9-20.9 0-11.5-9.3-20.9-20.9-20.9z" p-id="1230" fill="#2c7da8"></path></svg>